<svg width="476" height="65" viewBox="0 0 476 65" fill="none" xmlns="http://www.w3.org/2000/svg">
<path d="M4.456 51.48C4.11467 51.48 3.60267 51.4587 2.92 51.416C2.28 51.3733 1.78933 51.352 1.448 51.352C0.765333 51.352 0.424 50.9893 0.424 50.264C0.424 49.5387 0.765333 49.176 1.448 49.176C1.74667 49.176 2.216 49.1973 2.856 49.24C3.496 49.2827 3.96533 49.304 4.264 49.304C7.976 49.304 11.4533 47.896 14.696 45.08C12.6907 42.9467 11.688 40.3867 11.688 37.4C11.688 34.7547 12.5627 32.4933 14.312 30.616C16.0187 28.7813 18.2587 27.864 21.032 27.864C22.3547 27.864 23.5493 28.12 24.616 28.632C25.2987 26.584 25.9813 24.536 26.664 22.488C27.3467 20.44 28.0293 18.3707 28.712 16.28C30.4613 11.2453 32.3173 7.42666 34.28 4.824L30.632 4.632C21.6293 4.632 15.592 6.808 12.52 11.16C11.624 12.4827 11.176 13.8267 11.176 15.192C11.176 16.5147 11.5813 17.6027 12.392 18.456C13.2453 19.2667 14.3333 19.672 15.656 19.672C16.0827 19.672 16.6587 19.5227 17.384 19.224C18.1093 18.9253 18.5787 18.776 18.792 18.776C19.5173 18.776 19.88 19.16 19.88 19.928C19.88 20.3973 19.2613 20.8667 18.024 21.336C16.9147 21.6773 16.0827 21.848 15.528 21.848C13.608 21.848 12.0293 21.2293 10.792 19.992C9.59733 18.712 9 17.1333 9 15.256C9 13.5493 9.55467 11.8427 10.664 10.136C14.0773 5.05866 20.904 2.52 31.144 2.52C32.2107 2.52 33.1493 2.54133 33.96 2.584C34.7707 2.62667 35.4533 2.69066 36.008 2.776C37.5867 1.19733 38.9947 0.407997 40.232 0.407997C40.9147 0.407997 41.256 0.791997 41.256 1.56C41.256 2.072 40.5947 2.60533 39.272 3.16C45.4587 4.184 50.4933 6.40267 54.376 9.816C58.728 13.6987 60.904 18.6907 60.904 24.792C60.904 32.7707 57.5547 39.128 50.856 43.864C44.9253 48.088 37.8213 50.2 29.544 50.2C23.6987 50.2 19.2613 48.984 16.232 46.552C12.5627 49.8373 8.63733 51.48 4.456 51.48ZM29.544 48.024C37.2667 48.024 43.88 46.104 49.384 42.264C55.5707 37.9973 58.664 32.1733 58.664 24.792C58.664 18.904 56.4453 14.1893 52.008 10.648C48.2533 7.66133 43.1973 5.784 36.84 5.016C34.7067 7.576 32.7013 11.544 30.824 16.92C30.1413 19.0533 29.4373 21.208 28.712 23.384C27.9867 25.5173 27.2613 27.6507 26.536 29.784C28.4987 31.32 29.48 33.2827 29.48 35.672C29.48 38.872 28.6693 40.472 27.048 40.472C26.408 40.472 26.088 40.1307 26.088 39.448C26.088 39.2773 26.28 38.7867 26.664 37.976C27.0907 37.1653 27.304 36.44 27.304 35.8C27.304 34.3067 26.7493 33.0053 25.64 31.896C23.2933 37.528 20.6693 41.88 17.768 44.952C20.4133 47 24.3387 48.024 29.544 48.024ZM16.232 43.48C19.0053 40.4507 21.5653 36.1627 23.912 30.616C23.016 30.232 22.056 30.04 21.032 30.04C18.856 30.04 17.1067 30.744 15.784 32.152C14.504 33.5173 13.864 35.288 13.864 37.464C13.864 39.5973 14.6533 41.6027 16.232 43.48ZM78.527 47.64C77.119 47.64 75.9457 47.128 75.007 46.104C74.111 45.0373 73.663 43.5227 73.663 41.56C73.663 37.976 75.1777 33.3893 78.207 27.8C76.927 28.2693 75.775 28.504 74.751 28.504C72.6603 28.504 70.8257 27.6507 69.247 25.944C68.991 27.352 68.5217 28.9093 67.839 30.616C67.199 32.28 66.495 33.9227 65.727 35.544C64.959 37.1227 64.2337 38.5093 63.551 39.704C63.3803 40.0453 63.167 40.2587 62.911 40.344C62.655 40.4293 62.463 40.472 62.335 40.472C61.695 40.472 61.375 40.152 61.375 39.512C62.2283 38.1467 63.0817 36.568 63.935 34.776C64.7883 32.9413 65.5777 31.0213 66.303 29.016C67.071 27.0107 67.647 25.0693 68.031 23.192C67.775 22.168 67.647 21.016 67.647 19.736C67.647 17.6453 68.1163 16.6 69.055 16.6C70.079 16.6 70.591 17.6453 70.591 19.736C70.591 20.2053 70.5483 20.7387 70.463 21.336C70.4203 21.9333 70.3563 22.5733 70.271 23.256C70.4417 24.152 70.975 24.8773 71.871 25.432C72.8097 25.9867 73.791 26.264 74.815 26.264C76.2657 26.264 78.1217 25.5173 80.383 24.024C80.8523 23.6827 81.1297 23.512 81.215 23.512C82.0257 23.512 82.431 23.896 82.431 24.664C82.431 24.7493 82.4097 24.8347 82.367 24.92C82.367 25.0053 82.3457 25.0907 82.303 25.176C81.2363 27.0107 80.2763 28.7813 79.423 30.488C78.5697 32.152 77.823 33.7947 77.183 35.416C76.3297 37.592 75.903 39.576 75.903 41.368C75.903 44.0987 76.799 45.464 78.591 45.464C79.999 45.464 81.279 44.8453 82.431 43.608C83.6257 42.328 84.6923 40.9627 85.631 39.512C85.8443 39.1707 86.143 38.7227 86.527 38.168C86.9537 37.6133 87.3163 37.336 87.615 37.336C87.8283 37.336 87.9777 37.3787 88.063 37.464C88.191 37.5493 88.255 37.7627 88.255 38.104C88.255 38.3173 88.191 38.616 88.063 39C87.9777 39.384 87.8923 39.6187 87.807 39.704C86.655 41.7947 85.3323 43.6507 83.839 45.272C82.3883 46.8507 80.6177 47.64 78.527 47.64ZM91.321 46.872C90.0837 46.872 89.465 46.2533 89.465 45.016C89.465 43.7787 90.0837 43.16 91.321 43.16C92.5157 43.16 93.113 43.7787 93.113 45.016C93.113 46.2533 92.5157 46.872 91.321 46.872ZM148.02 51.48C147.252 51.48 146.868 51.1173 146.868 50.392C146.868 50.3067 146.889 50.0507 146.932 49.624C147.017 49.24 147.102 48.7067 147.188 48.024C147.785 43.7573 148.233 39.9387 148.532 36.568C148.83 33.1547 148.979 30.2107 148.979 27.736C148.979 11.736 144.222 3.736 134.708 3.736C130.526 3.736 126.985 5.25066 124.084 8.28C121.182 11.3093 119.732 14.936 119.732 19.16C119.732 21.976 120.542 24.28 122.164 26.072C123.785 27.864 125.961 28.76 128.692 28.76C130.441 28.76 132.169 28.0987 133.876 26.776C134.345 26.52 134.622 26.392 134.708 26.392C135.433 26.392 135.796 26.7547 135.796 27.48C135.796 27.736 135.71 27.9493 135.54 28.12C133.79 29.9973 131.508 30.936 128.692 30.936C125.449 30.936 122.761 29.784 120.628 27.48C118.622 25.2613 117.62 22.5093 117.62 19.224C117.62 14.4027 119.284 10.264 122.612 6.808C125.94 3.30933 129.993 1.56 134.772 1.56C145.652 1.56 151.092 10.3067 151.092 27.8C151.092 32.4507 150.644 38.168 149.748 44.952C152.521 39.7893 155.017 35.288 157.236 31.448C159.454 27.5653 161.417 24.344 163.124 21.784C170.548 10.5627 176.393 4.952 180.66 4.952C181.513 4.952 181.94 5.29333 181.94 5.976C181.94 6.70133 181.47 7.064 180.532 7.064C175.326 7.064 165.342 20.6533 150.58 47.832C150.409 48.1733 150.174 48.6 149.876 49.112C149.62 49.6667 149.278 50.3067 148.852 51.032C148.681 51.3307 148.404 51.48 148.02 51.48ZM173.954 21.656C172.461 21.656 171.714 20.9093 171.714 19.416C171.714 17.9227 172.461 17.176 173.954 17.176C175.447 17.176 176.194 17.9227 176.194 19.416C176.194 20.9093 175.447 21.656 173.954 21.656ZM171.074 47.448C169.623 47.448 168.407 46.9147 167.426 45.848C166.445 44.7813 165.954 43.4587 165.954 41.88C165.954 39.96 166.679 37.4213 168.13 34.264C169.581 31.1067 170.306 28.5893 170.306 26.712C170.306 26.0293 170.669 25.688 171.394 25.688C172.119 25.688 172.482 26.2427 172.482 27.352C172.482 28.888 171.757 31.256 170.306 34.456C168.855 37.656 168.13 40.0667 168.13 41.688C168.13 42.6693 168.429 43.5227 169.026 44.248C169.666 44.9307 170.434 45.272 171.33 45.272C172.909 45.272 174.338 44.7173 175.618 43.608C176.898 42.4987 178.071 41.1333 179.138 39.512C179.607 38.7867 179.97 38.296 180.226 38.04C180.482 37.784 180.738 37.656 180.994 37.656C181.549 37.656 181.826 37.8693 181.826 38.296C181.826 38.552 181.655 39.0213 181.314 39.704C180.119 41.88 178.647 43.7147 176.898 45.208C175.149 46.7013 173.207 47.448 171.074 47.448ZM190.197 48.216C186.826 48.216 184.202 47.128 182.325 44.952C180.576 42.8613 179.701 40.152 179.701 36.824C179.701 33.1973 180.981 29.8267 183.541 26.712C186.314 23.4267 189.472 21.784 193.013 21.784C195.018 21.784 196.554 22.36 197.621 23.512C198.602 24.6213 199.093 25.944 199.093 27.48C199.093 29.144 198.56 30.5733 197.493 31.768C196.298 33.1333 194.72 33.816 192.757 33.816C190.41 33.816 189.237 32.5573 189.237 30.04C189.237 28.76 189.578 28.12 190.261 28.12C191.029 28.12 191.413 28.7813 191.413 30.104C191.413 31.128 191.968 31.64 193.077 31.64C194.229 31.64 195.146 31.2347 195.829 30.424C196.554 29.5707 196.917 28.6107 196.917 27.544C196.917 25.1547 195.616 23.96 193.013 23.96C190.026 23.96 187.424 25.3253 185.205 28.056C182.986 30.7867 181.877 33.6667 181.877 36.696C181.877 39.4693 182.581 41.752 183.989 43.544C185.397 45.2933 187.445 46.168 190.133 46.168C192.181 46.168 194.122 45.592 195.957 44.44C197.834 43.2453 199.392 41.6027 200.629 39.512C200.842 39.1707 201.098 38.8293 201.397 38.488C201.696 38.104 201.994 37.912 202.293 37.912C202.762 37.912 202.997 38.232 202.997 38.872C202.997 39.1707 202.933 39.448 202.805 39.704C201.824 41.752 200.608 43.416 199.157 44.696C197.749 45.9333 196.256 46.8293 194.677 47.384C193.141 47.9387 191.648 48.216 190.197 48.216ZM206.065 47.832C202.78 47.832 201.137 45.1867 201.137 39.896C201.137 35.4587 202.097 30.0187 204.017 23.576H201.969C201.286 23.576 200.945 23.2133 200.945 22.488C200.945 21.7627 201.286 21.4 201.969 21.4H204.721C205.276 19.736 205.852 18.1787 206.449 16.728C207.046 15.2773 207.665 13.9547 208.305 12.76C210.225 9.048 212.102 7.192 213.937 7.192C215.388 7.192 216.113 8.344 216.113 10.648C216.113 11.8853 215.9 13.208 215.473 14.616C215.174 15.5973 214.833 16.664 214.449 17.816C214.065 18.9253 213.617 20.12 213.105 21.4H216.241C216.966 21.4 217.329 21.7627 217.329 22.488C217.329 23.2133 216.966 23.576 216.241 23.576H212.081C209.905 28.44 207.025 33.304 203.441 38.168C203.398 38.5093 203.377 38.8507 203.377 39.192C203.377 39.4907 203.377 39.7893 203.377 40.088C203.377 43.8853 204.444 45.784 206.577 45.784C208.241 45.784 209.713 45.1867 210.993 43.992C212.316 42.7973 213.51 41.304 214.577 39.512C215.004 38.7867 215.366 38.296 215.665 38.04C215.964 37.784 216.198 37.656 216.369 37.656C216.881 37.656 217.137 37.976 217.137 38.616C217.137 38.7013 217.073 38.9147 216.945 39.256C216.86 39.5547 216.774 39.7467 216.689 39.832C215.452 42.1787 213.937 44.0987 212.145 45.592C210.353 47.0853 208.326 47.832 206.065 47.832ZM207.089 21.4H210.609C211.292 19.9067 211.846 18.584 212.273 17.432C212.742 16.28 213.105 15.2987 213.361 14.488C213.702 13.208 213.873 12.1413 213.873 11.288C213.873 10.3493 213.681 9.88 213.297 9.88C212.614 9.88 211.654 11.032 210.417 13.336C209.862 14.4027 209.308 15.6187 208.753 16.984C208.198 18.3067 207.644 19.7787 207.089 21.4ZM203.953 33.944C204.934 32.3227 205.894 30.6587 206.833 28.952C207.772 27.2027 208.689 25.4107 209.585 23.576H206.385C205.83 25.2827 205.34 27.0107 204.913 28.76C204.529 30.4667 204.209 32.1947 203.953 33.944ZM223.651 47.576C220.963 47.576 218.872 46.5093 217.379 44.376C216.184 42.5413 215.587 40.216 215.587 37.4C215.587 34.4987 216.269 31.512 217.635 28.44C219.128 25.112 221.112 22.8293 223.587 21.592C224.525 21.1227 225.336 20.888 226.019 20.888C226.744 20.888 227.341 21.1227 227.811 21.592C228.877 20.8667 229.944 20.504 231.01 20.504C233.016 20.504 234.552 21.5493 235.619 23.64C236.472 25.2613 236.899 27.1173 236.899 29.208C236.899 33.0907 235.704 36.9947 233.315 40.92C230.627 45.3573 227.405 47.576 223.651 47.576ZM223.587 45.336C226.616 45.336 229.304 43.3947 231.651 39.512C233.699 36.056 234.723 32.6427 234.723 29.272C234.723 27.864 234.424 26.456 233.827 25.048C233.144 23.4693 232.205 22.68 231.01 22.68C229.688 22.68 228.536 23.4267 227.555 24.92C226.573 26.4133 226.083 27.8853 226.083 29.336C226.083 31.128 226.744 32.024 228.067 32.024C228.749 32.024 229.091 32.3867 229.091 33.112C229.091 33.8373 228.749 34.2 228.067 34.2C225.336 34.2 223.97 32.6213 223.97 29.464C223.97 27.0747 224.717 24.9413 226.211 23.064C226.168 23.0213 226.104 23 226.019 23C225.805 23 225.315 23.1707 224.547 23.512C222.541 24.6213 220.877 26.6267 219.555 29.528C218.36 32.088 217.763 34.6907 217.763 37.336C217.763 39.4693 218.189 41.2827 219.043 42.776C220.109 44.4827 221.624 45.336 223.587 45.336ZM254.777 47.64C253.369 47.64 252.196 47.128 251.257 46.104C250.361 45.0373 249.913 43.5227 249.913 41.56C249.913 37.976 251.428 33.3893 254.457 27.8C253.177 28.2693 252.025 28.504 251.001 28.504C248.91 28.504 247.076 27.6507 245.497 25.944C245.241 27.352 244.772 28.9093 244.089 30.616C243.449 32.28 242.745 33.9227 241.977 35.544C241.209 37.1227 240.484 38.5093 239.801 39.704C239.63 40.0453 239.417 40.2587 239.161 40.344C238.905 40.4293 238.713 40.472 238.585 40.472C237.945 40.472 237.625 40.152 237.625 39.512C238.478 38.1467 239.332 36.568 240.185 34.776C241.038 32.9413 241.828 31.0213 242.553 29.016C243.321 27.0107 243.897 25.0693 244.281 23.192C244.025 22.168 243.897 21.016 243.897 19.736C243.897 17.6453 244.366 16.6 245.305 16.6C246.329 16.6 246.841 17.6453 246.841 19.736C246.841 20.2053 246.798 20.7387 246.713 21.336C246.67 21.9333 246.606 22.5733 246.521 23.256C246.692 24.152 247.225 24.8773 248.121 25.432C249.06 25.9867 250.041 26.264 251.065 26.264C252.516 26.264 254.372 25.5173 256.633 24.024C257.102 23.6827 257.38 23.512 257.465 23.512C258.276 23.512 258.681 23.896 258.681 24.664C258.681 24.7493 258.66 24.8347 258.617 24.92C258.617 25.0053 258.596 25.0907 258.553 25.176C257.486 27.0107 256.526 28.7813 255.673 30.488C254.82 32.152 254.073 33.7947 253.433 35.416C252.58 37.592 252.153 39.576 252.153 41.368C252.153 44.0987 253.049 45.464 254.841 45.464C256.249 45.464 257.529 44.8453 258.681 43.608C259.876 42.328 260.942 40.9627 261.881 39.512C262.094 39.1707 262.393 38.7227 262.777 38.168C263.204 37.6133 263.566 37.336 263.865 37.336C264.078 37.336 264.228 37.3787 264.313 37.464C264.441 37.5493 264.505 37.7627 264.505 38.104C264.505 38.3173 264.441 38.616 264.313 39C264.228 39.384 264.142 39.6187 264.057 39.704C262.905 41.7947 261.582 43.6507 260.089 45.272C258.638 46.8507 256.868 47.64 254.777 47.64ZM301.875 50.648C296.072 50.648 291.208 48.8773 287.283 45.336C283.4 41.8373 281.459 37.1653 281.459 31.32C281.459 26.7973 282.462 22.424 284.467 18.2C281.864 16.6213 279.667 14.5733 277.875 12.056C275.912 9.32533 274.931 6.552 274.931 3.736C274.931 2.92533 275.336 2.52 276.147 2.52C276.659 2.52 276.979 2.86133 277.107 3.544C277.192 4.184 277.384 5.16533 277.683 6.488C279.048 10.6693 281.63 13.9333 285.427 16.28C287.987 11.8 291.571 8.088 296.179 5.144C301 2.11466 305.886 0.599998 310.835 0.599998C313.864 0.599998 316.467 1.176 318.643 2.328C321.416 3.82133 322.803 5.95466 322.803 8.728C322.803 8.94133 322.782 9.15466 322.739 9.368C322.739 9.53866 322.718 9.73066 322.675 9.944C324.894 9.944 326.686 11.5227 328.051 14.68C329.075 17.112 329.587 19.5867 329.587 22.104C329.587 29.8267 326.92 36.4827 321.587 42.072C316.126 47.7893 309.555 50.648 301.875 50.648ZM300.147 19.864C304.584 19.864 308.851 19.0533 312.947 17.432C318.11 15.3413 320.691 12.44 320.691 8.728C320.691 6.50933 319.539 4.86666 317.235 3.8C315.315 2.94666 313.118 2.52 310.643 2.52C306.206 2.52 301.726 4.01333 297.203 7C292.936 9.77333 289.651 13.2293 287.347 17.368C290.76 19.032 295.027 19.864 300.147 19.864ZM301.683 48.472C308.766 48.472 314.846 45.8693 319.923 40.664C325 35.4587 327.539 29.3147 327.539 22.232C327.539 17.7947 326.366 14.7227 324.019 13.016C323.806 12.9307 323.528 12.8027 323.187 12.632C322.888 12.4187 322.504 12.184 322.035 11.928C320.414 15.4693 317.256 18.136 312.563 19.928C308.808 21.336 304.648 22.04 300.083 22.04C294.579 22.04 289.992 21.1227 286.323 19.288C284.531 23.0427 283.635 27.0107 283.635 31.192C283.635 36.4827 285.32 40.6853 288.691 43.8C292.062 46.9147 296.392 48.472 301.683 48.472ZM338.746 48.216C334.308 48.216 332.09 44.888 332.09 38.232C332.09 34.904 332.602 31.32 333.626 27.48H333.498C332.559 27.3093 332.09 26.904 332.09 26.264C332.09 25.5387 332.452 25.176 333.178 25.176C333.434 25.176 333.818 25.24 334.33 25.368C337.572 16.664 341.028 10.2213 344.698 6.04C346.404 4.07733 348.111 3.096 349.818 3.096C351.908 3.096 352.954 4.632 352.954 7.704C352.954 11.9707 351.204 16.3227 347.706 20.76C343.951 25.624 339.983 27.928 335.802 27.672C335.247 29.2933 334.842 30.9787 334.586 32.728C334.33 34.4773 334.202 36.2693 334.202 38.104C334.202 43.2667 335.674 45.848 338.618 45.848C340.324 45.848 342.01 44.8667 343.674 42.904C345.252 40.9413 346.042 38.744 346.042 36.312C346.042 33.496 345.167 32.088 343.418 32.088C342.65 32.088 341.924 32.344 341.242 32.856C340.602 33.368 340.282 33.88 340.282 34.392C340.282 34.4773 340.324 34.6053 340.41 34.776C340.495 34.9467 340.538 35.1173 340.538 35.288C340.538 36.0133 340.175 36.376 339.45 36.376C339.023 36.376 338.682 36.1413 338.426 35.672C338.212 35.2027 338.106 34.7547 338.106 34.328C338.106 33.1333 338.639 32.1093 339.706 31.256C340.815 30.36 342.052 29.912 343.418 29.912C346.66 29.912 348.282 32.0453 348.282 36.312C348.282 39.6827 347.194 42.5627 345.018 44.952C343.183 47.128 341.092 48.216 338.746 48.216ZM336.57 25.496C340.154 25.2827 343.439 23.0853 346.426 18.904C349.284 14.9787 350.714 11.16 350.714 7.448C350.714 5.912 350.287 5.144 349.434 5.144C348.708 5.144 347.834 5.67733 346.81 6.744C343.268 10.5413 339.855 16.792 336.57 25.496ZM367.34 47.64C365.932 47.64 364.758 47.128 363.82 46.104C362.924 45.0373 362.476 43.5227 362.476 41.56C362.476 37.976 363.99 33.3893 367.02 27.8C365.74 28.2693 364.588 28.504 363.564 28.504C361.473 28.504 359.638 27.6507 358.06 25.944C357.804 27.352 357.334 28.9093 356.652 30.616C356.012 32.28 355.308 33.9227 354.54 35.544C353.772 37.1227 353.046 38.5093 352.364 39.704C352.193 40.0453 351.98 40.2587 351.724 40.344C351.468 40.4293 351.276 40.472 351.148 40.472C350.508 40.472 350.188 40.152 350.188 39.512C351.041 38.1467 351.894 36.568 352.748 34.776C353.601 32.9413 354.39 31.0213 355.116 29.016C355.884 27.0107 356.46 25.0693 356.844 23.192C356.588 22.168 356.46 21.016 356.46 19.736C356.46 17.6453 356.929 16.6 357.868 16.6C358.892 16.6 359.404 17.6453 359.404 19.736C359.404 20.2053 359.361 20.7387 359.276 21.336C359.233 21.9333 359.169 22.5733 359.084 23.256C359.254 24.152 359.788 24.8773 360.684 25.432C361.622 25.9867 362.604 26.264 363.628 26.264C365.078 26.264 366.934 25.5173 369.196 24.024C369.665 23.6827 369.942 23.512 370.028 23.512C370.838 23.512 371.244 23.896 371.244 24.664C371.244 24.7493 371.222 24.8347 371.18 24.92C371.18 25.0053 371.158 25.0907 371.116 25.176C370.049 27.0107 369.089 28.7813 368.236 30.488C367.382 32.152 366.636 33.7947 365.996 35.416C365.142 37.592 364.716 39.576 364.716 41.368C364.716 44.0987 365.612 45.464 367.404 45.464C368.812 45.464 370.092 44.8453 371.244 43.608C372.438 42.328 373.505 40.9627 374.444 39.512C374.657 39.1707 374.956 38.7227 375.34 38.168C375.766 37.6133 376.129 37.336 376.428 37.336C376.641 37.336 376.79 37.3787 376.876 37.464C377.004 37.5493 377.068 37.7627 377.068 38.104C377.068 38.3173 377.004 38.616 376.876 39C376.79 39.384 376.705 39.6187 376.62 39.704C375.468 41.7947 374.145 43.6507 372.652 45.272C371.201 46.8507 369.43 47.64 367.34 47.64ZM384.998 47.832C381.798 47.832 379.323 46.8293 377.574 44.824C375.824 42.8187 374.95 40.216 374.95 37.016C374.95 32.2373 376.55 28.3547 379.75 25.368C382.523 22.7227 385.574 21.4 388.902 21.4C390.651 21.4 392.059 21.848 393.126 22.744C394.235 23.5973 394.79 24.8347 394.79 26.456C394.79 29.016 393.339 31.1067 390.438 32.728C387.92 34.0933 385.04 34.776 381.798 34.776C380.048 34.776 378.619 34.5627 377.51 34.136C377.424 34.6053 377.339 35.096 377.254 35.608C377.211 36.0773 377.19 36.5467 377.19 37.016C377.19 39.6187 377.851 41.752 379.174 43.416C380.496 45.0373 382.416 45.848 384.934 45.848C389.456 45.848 393.062 43.736 395.75 39.512C396.091 39 396.39 38.5947 396.646 38.296C396.902 37.9973 397.2 37.848 397.542 37.848C397.968 37.848 398.182 38.104 398.182 38.616C398.182 38.9147 398.139 39.1493 398.054 39.32C398.011 39.4907 397.968 39.6187 397.926 39.704C396.475 42.1787 394.598 44.1627 392.294 45.656C389.99 47.1067 387.558 47.832 384.998 47.832ZM381.606 32.6C384.336 32.6 386.768 32.0667 388.902 31C391.376 29.8053 392.614 28.248 392.614 26.328C392.614 24.4933 391.312 23.576 388.71 23.576C386.363 23.576 384.187 24.4507 382.182 26.2C380.39 27.736 379.024 29.6773 378.086 32.024C379.067 32.408 380.24 32.6 381.606 32.6ZM398.246 64.28C395.814 64.28 394.598 63.2133 394.598 61.08C394.598 58.648 397.179 56.0667 402.342 53.336C404.731 52.312 408.209 50.6053 412.774 48.216C413.627 45.8267 414.459 42.7973 415.27 39.128C414.075 41.0907 412.71 42.7333 411.174 44.056C408.699 46.2747 406.033 47.384 403.174 47.384C401.254 47.384 399.675 46.744 398.438 45.464C397.115 44.0133 396.454 41.9013 396.454 39.128C396.454 35.288 397.819 31.7467 400.55 28.504C403.451 25.048 406.758 23.32 410.47 23.32C412.561 23.32 414.161 23.8533 415.27 24.92C416.379 25.944 416.934 27.1813 416.934 28.632C416.934 30.04 416.443 31.2773 415.462 32.344C414.481 33.4107 413.179 33.944 411.558 33.944C410.321 33.944 409.702 33.5813 409.702 32.856C409.702 32.088 410.321 31.704 411.558 31.704C412.539 31.704 413.329 31.4053 413.926 30.808C414.566 30.168 414.886 29.4427 414.886 28.632C414.886 26.5413 413.457 25.496 410.598 25.496C407.398 25.496 404.561 26.9893 402.086 29.976C399.782 32.792 398.63 35.864 398.63 39.192C398.63 43.2453 400.166 45.272 403.238 45.272C406.097 45.272 408.785 43.8213 411.302 40.92C413.094 38.8293 414.715 35.9067 416.166 32.152C416.379 31.256 416.827 30.0613 417.51 28.568C417.723 28.2267 418.001 28.056 418.342 28.056C419.153 28.056 419.558 28.4187 419.558 29.144L418.918 32.472C418.619 33.9653 418.193 35.864 417.638 38.168C417.126 40.4293 416.507 43.096 415.782 46.168C416.635 45.528 417.574 44.7813 418.598 43.928C419.665 43.032 420.966 41.5387 422.502 39.448C422.63 39.2347 422.886 38.8933 423.27 38.424C423.654 37.912 423.995 37.656 424.294 37.656C424.763 37.656 424.998 37.8907 424.998 38.36C424.998 38.5733 424.977 38.7867 424.934 39C424.934 39.2133 424.849 39.448 424.678 39.704C423.654 41.2827 422.289 42.904 420.582 44.568C418.918 46.232 417.019 47.7253 414.886 49.048C412.113 55.2347 408.507 59.736 404.07 62.552C402.363 63.704 400.422 64.28 398.246 64.28ZM398.63 62.552C399.654 62.552 400.977 62.0613 402.598 61.08C405.969 58.9893 408.806 55.832 411.11 51.608C410.171 52.0347 409.019 52.5467 407.654 53.144C406.331 53.784 404.753 54.5307 402.918 55.384C398.993 57.3893 397.03 59.3307 397.03 61.208C397.03 62.104 397.563 62.552 398.63 62.552ZM431.588 47.576C428.9 47.576 426.809 46.5093 425.316 44.376C424.121 42.5413 423.524 40.216 423.524 37.4C423.524 34.4987 424.207 31.512 425.572 28.44C427.065 25.112 429.049 22.8293 431.524 21.592C432.463 21.1227 433.273 20.888 433.956 20.888C434.681 20.888 435.279 21.1227 435.748 21.592C436.815 20.8667 437.881 20.504 438.948 20.504C440.953 20.504 442.489 21.5493 443.556 23.64C444.409 25.2613 444.836 27.1173 444.836 29.208C444.836 33.0907 443.641 36.9947 441.252 40.92C438.564 45.3573 435.343 47.576 431.588 47.576ZM431.524 45.336C434.553 45.336 437.241 43.3947 439.588 39.512C441.636 36.056 442.66 32.6427 442.66 29.272C442.66 27.864 442.361 26.456 441.764 25.048C441.081 23.4693 440.143 22.68 438.948 22.68C437.625 22.68 436.473 23.4267 435.492 24.92C434.511 26.4133 434.02 27.8853 434.02 29.336C434.02 31.128 434.681 32.024 436.004 32.024C436.687 32.024 437.028 32.3867 437.028 33.112C437.028 33.8373 436.687 34.2 436.004 34.2C433.273 34.2 431.908 32.6213 431.908 29.464C431.908 27.0747 432.655 24.9413 434.148 23.064C434.105 23.0213 434.041 23 433.956 23C433.743 23 433.252 23.1707 432.484 23.512C430.479 24.6213 428.815 26.6267 427.492 29.528C426.297 32.088 425.7 34.6907 425.7 37.336C425.7 39.4693 426.127 41.2827 426.98 42.776C428.047 44.4827 429.561 45.336 431.524 45.336ZM438.116 16.664C437.903 16.664 437.689 16.6 437.476 16.472C436.409 15.7467 435.236 14.9573 433.956 14.104C432.719 13.2507 431.524 12.4613 430.372 11.736C430.031 11.5227 429.86 11.2027 429.86 10.776C429.86 10.4773 429.967 10.2 430.18 9.944C430.393 9.688 430.649 9.56 430.948 9.56C431.204 9.56 431.481 9.66666 431.78 9.88C432.079 10.0933 432.591 10.4987 433.316 11.096C433.828 11.48 434.575 12.0773 435.556 12.888C436.58 13.656 437.561 14.3813 438.5 15.064C438.799 15.2773 438.948 15.5333 438.948 15.832C438.948 16.0027 438.863 16.1947 438.692 16.408C438.521 16.5787 438.329 16.664 438.116 16.664ZM465.019 47.512C463.44 47.512 462.203 47.0853 461.307 46.232C460.411 45.3787 459.963 44.184 459.963 42.648C459.963 42.0933 460.112 41.2187 460.411 40.024C460.709 38.8293 461.115 37.5067 461.627 36.056C462.224 34.3067 462.672 32.8987 462.971 31.832C463.312 30.7653 463.525 30.0187 463.611 29.592C463.696 29.1227 463.76 28.696 463.803 28.312C463.845 27.928 463.867 27.5653 463.867 27.224C463.867 24.792 462.843 23.576 460.795 23.576C457.893 23.576 455.099 25.8373 452.411 30.36C451.045 32.664 449.424 36.2693 447.547 41.176C447.376 41.7733 447.099 42.52 446.715 43.416C446.373 44.2693 445.968 45.272 445.498 46.424C445.285 46.8933 445.008 47.128 444.666 47.128C444.368 47.128 444.09 47 443.834 46.744C443.578 46.4453 443.451 46.168 443.451 45.912C443.451 45.7413 444.176 43.672 445.627 39.704C448.4 32.024 449.786 26.1147 449.786 21.976C449.786 21.1653 450.149 20.76 450.875 20.76C451.301 20.76 451.643 21.0587 451.899 21.656C452.155 22.2107 452.283 22.7013 452.283 23.128C452.283 24.28 452.091 25.6667 451.707 27.288C454.608 23.32 457.744 21.336 461.115 21.336C464.656 21.336 466.427 23.256 466.427 27.096C466.427 28.76 465.552 32.088 463.803 37.08C463.504 37.9333 463.205 38.872 462.907 39.896C462.651 40.92 462.523 41.8587 462.523 42.712C462.523 43.48 462.672 44.12 462.971 44.632C463.312 45.1013 463.909 45.336 464.763 45.336C465.701 45.336 466.704 45.0587 467.771 44.504C468.837 43.9067 469.861 43.16 470.843 42.264C471.824 41.368 472.613 40.4293 473.211 39.448C473.595 38.8507 473.893 38.4027 474.107 38.104C474.363 37.8053 474.661 37.656 475.003 37.656C475.515 37.656 475.771 37.9547 475.771 38.552C475.771 38.6373 475.728 38.8293 475.643 39.128C475.557 39.4267 475.472 39.6187 475.387 39.704C474.661 41.0693 473.723 42.3493 472.571 43.544C471.419 44.7387 470.181 45.6987 468.859 46.424C467.536 47.1493 466.256 47.512 465.019 47.512Z" fill="black"/>
</svg>
