<?xml version="1.0" encoding="UTF-8" standalone="no"?>
<!DOCTYPE svg PUBLIC "-//W3C//DTD SVG 1.1//EN" "http://www.w3.org/Graphics/SVG/1.1/DTD/svg11.dtd">
<svg xmlns="http://www.w3.org/2000/svg" version="1.1" viewBox="0.00 0.00 108.00 333.00">
<g stroke-width="2.00" fill="none" stroke-linecap="butt">
<path stroke="#a18d95" vector-effect="non-scaling-stroke" d="
  M 108.00 183.12
  Q 107.81 179.42 107.77 175.70
  C 107.68 166.57 105.90 157.93 102.41 149.48
  Q 101.30 146.78 100.30 144.06"
/>
<path stroke="#d4c7cd" vector-effect="non-scaling-stroke" d="
  M 100.30 144.06
  Q 99.86 142.58 98.92 141.54"
/>
<path stroke="#a18d95" vector-effect="non-scaling-stroke" d="
  M 98.92 141.54
  Q 81.25 106.35 45.31 88.32
  Q 42.56 86.95 45.61 86.53
  Q 49.94 85.93 54.68 81.43
  Q 64.70 71.88 66.65 57.18
  Q 66.78 56.22 66.19 55.40
  Q 48.49 30.81 36.18 1.63
  Q 35.93 1.04 35.32 1.24
  Q 34.83 1.39 34.96 1.88
  C 38.47 15.54 43.88 28.83 49.45 41.11
  Q 52.45 47.73 56.08 53.42
  C 57.51 55.68 59.52 57.53 59.31 60.49
  C 58.79 67.50 53.27 74.29 47.71 78.24
  Q 40.11 83.65 31.08 82.20
  Q 30.76 82.15 30.57 82.41
  Q 30.33 82.74 30.82 83.26
  A 0.57 0.57 0.0 0 0 31.01 83.40
  Q 42.24 89.28 55.17 99.60
  Q 77.28 117.26 89.90 141.61
  Q 91.52 144.74 92.59 147.84"
/>
<path stroke="#d4c7cd" vector-effect="non-scaling-stroke" d="
  M 92.59 147.84
  Q 93.59 150.51 92.02 150.63"
/>
<path stroke="#a8a8a8" vector-effect="non-scaling-stroke" d="
  M 92.02 150.63
  Q 82.61 134.59 63.77 136.25
  C 43.19 138.06 35.11 159.30 33.01 177.20
  Q 30.49 198.74 34.42 219.02
  C 37.64 235.61 46.49 249.59 65.28 249.80
  C 76.58 249.93 85.71 244.38 91.05 234.77
  C 98.32 221.70 99.81 207.41 100.00 192.73"
/>
<path stroke="#d4c7cd" vector-effect="non-scaling-stroke" d="
  M 100.00 192.73
  Q 100.56 186.96 99.57 181.79"
/>
<path stroke="#a8a8a8" vector-effect="non-scaling-stroke" d="
  M 99.57 181.79
  L 99.39 177.81"
/>
<path stroke="#d4c7cd" vector-effect="non-scaling-stroke" d="
  M 99.39 177.81
  Q 99.77 176.73 99.63 175.50
  Q 99.46 174.06 100.55 174.07"
/>
<path stroke="#a18d95" vector-effect="non-scaling-stroke" d="
  M 100.55 174.07
  Q 101.40 179.54 101.43 181.75
  C 101.60 193.37 103.44 205.47 101.12 217.55
  C 96.81 239.93 84.49 261.01 67.51 276.49
  Q 53.18 289.55 35.86 298.11
  Q 35.69 298.19 35.82 298.32
  L 36.11 298.62
  Q 36.36 298.88 36.69 298.75
  L 50.99 293.18
  A 0.94 0.94 0.0 0 1 52.26 294.15
  Q 51.76 299.04 51.28 303.64
  Q 49.77 318.05 44.83 330.01
  Q 44.47 330.87 43.86 331.61
  Q 43.50 332.04 43.99 332.33
  Q 44.83 332.81 46.02 333.00"
/>
<path stroke="#765562" vector-effect="non-scaling-stroke" d="
  M 98.92 141.54
  Q 99.02 143.40 99.97 144.84
  Q 100.32 145.38 100.39 144.74
  Q 100.42 144.40 100.30 144.06"
/>
<path stroke="#a18d95" vector-effect="non-scaling-stroke" d="
  M 108.00 217.00
  C 106.49 242.77 89.93 274.07 67.01 286.58
  Q 62.01 289.31 56.24 291.43
  A 0.91 0.91 0.0 0 0 55.64 292.33
  Q 56.37 312.13 49.99 331.78
  Q 49.83 332.27 49.33 332.40
  L 46.98 333.00"
/>
<path stroke="#765562" vector-effect="non-scaling-stroke" d="
  M 100.55 174.07
  Q 99.61 168.01 97.93 162.20
  Q 97.26 159.93 96.78 157.75
  Q 96.28 155.50 95.68 153.27
  Q 94.85 150.17 92.59 147.84"
/>
<path stroke="#7d7076" vector-effect="non-scaling-stroke" d="
  M 92.02 150.63
  Q 93.61 154.72 95.18 158.97
  Q 96.26 161.87 96.74 163.79
  Q 97.80 168.08 97.82 168.13
  Q 99.22 172.83 99.39 177.81"
/>
<path stroke="#7d7076" vector-effect="non-scaling-stroke" d="
  M 99.57 181.79
  L 100.00 192.73"
/>
<path stroke="#2a2929" vector-effect="non-scaling-stroke" d="
  M 65.06 179.09
  Q 64.58 179.36 63.88 179.46
  Q 63.35 179.54 63.41 180.07
  Q 63.49 180.76 64.50 181.46"
/>
<path stroke="#a8a8a8" vector-effect="non-scaling-stroke" d="
  M 64.50 181.46
  Q 62.47 181.01 61.56 179.93
  Q 58.90 176.80 56.04 173.92
  C 52.57 170.44 45.61 181.41 43.99 184.39
  Q 42.87 186.46 42.87 188.98
  C 42.87 202.36 42.98 230.95 59.62 236.08
  Q 71.28 239.68 79.15 231.78
  C 82.99 227.92 85.54 222.69 86.76 217.58
  Q 88.34 211.01 89.47 204.37
  C 90.66 197.39 90.31 190.07 90.69 183.00
  C 90.78 181.19 89.74 179.76 89.72 177.95
  C 89.69 175.41 88.36 173.16 88.01 170.67
  Q 86.75 161.63 80.57 154.72
  Q 75.70 149.29 67.56 148.61
  C 56.62 147.69 49.21 156.96 46.33 166.64
  C 45.48 169.49 44.42 172.38 43.75 175.27
  Q 43.17 177.75 45.05 176.03
  C 47.54 173.76 51.56 169.74 55.04 170.83
  Q 56.27 171.21 58.71 173.54
  Q 61.74 176.44 65.06 179.09"
/>
<path stroke="#818080" vector-effect="non-scaling-stroke" d="
  M 64.50 181.46
  L 68.26 182.49
  A 2.03 2.02 8.9 0 1 69.74 184.51
  L 69.64 186.93
  Q 69.60 187.92 68.66 187.64
  Q 66.65 187.05 64.38 187.22
  Q 62.17 187.38 61.41 189.46
  Q 60.78 191.21 60.73 193.02
  Q 60.66 195.36 63.00 195.23
  Q 65.71 195.07 68.40 194.40
  Q 70.95 193.75 71.86 196.05
  Q 73.30 199.71 74.56 203.59
  Q 74.64 203.86 74.36 203.89
  L 74.05 203.92
  A 0.59 0.59 0.0 0 1 73.48 203.63
  Q 72.28 201.52 71.40 199.36
  C 70.23 196.46 66.65 197.91 65.08 199.40
  C 61.70 202.61 56.01 203.45 54.88 208.69
  Q 54.00 212.80 54.69 218.02
  C 55.59 224.89 59.67 229.53 66.11 231.71
  C 76.40 235.19 80.57 224.69 81.48 216.76
  C 82.21 210.43 86.58 205.07 87.83 198.79
  Q 90.17 186.99 88.30 177.48
  Q 87.34 172.59 85.15 165.24
  C 84.02 161.47 81.63 155.49 76.56 156.46
  C 73.67 157.02 72.06 159.92 69.91 161.72
  A 1.19 1.19 0.0 0 1 67.99 161.11
  C 67.32 158.52 65.92 153.07 62.29 153.88
  C 59.71 154.46 59.00 158.60 58.77 160.74
  A 1.10 1.07 -66.5 0 0 59.11 161.64
  Q 60.34 162.78 62.40 162.62
  A 1.14 1.13 84.2 0 1 63.62 163.62
  Q 64.03 166.95 64.53 170.74
  Q 64.96 173.91 68.84 173.21
  Q 70.35 172.94 70.14 174.46
  L 69.62 178.38
  A 1.55 1.55 0.0 0 1 67.75 179.69
  L 65.06 179.09"
/>
</g>
<path fill="#ffffff" d="
  M 0.00 0.00
  L 108.00 0.00
  L 108.00 183.12
  Q 107.81 179.42 107.77 175.70
  C 107.68 166.57 105.90 157.93 102.41 149.48
  Q 101.30 146.78 100.30 144.06
  Q 99.86 142.58 98.92 141.54
  Q 81.25 106.35 45.31 88.32
  Q 42.56 86.95 45.61 86.53
  Q 49.94 85.93 54.68 81.43
  Q 64.70 71.88 66.65 57.18
  Q 66.78 56.22 66.19 55.40
  Q 48.49 30.81 36.18 1.63
  Q 35.93 1.04 35.32 1.24
  Q 34.83 1.39 34.96 1.88
  C 38.47 15.54 43.88 28.83 49.45 41.11
  Q 52.45 47.73 56.08 53.42
  C 57.51 55.68 59.52 57.53 59.31 60.49
  C 58.79 67.50 53.27 74.29 47.71 78.24
  Q 40.11 83.65 31.08 82.20
  Q 30.76 82.15 30.57 82.41
  Q 30.33 82.74 30.82 83.26
  A 0.57 0.57 0.0 0 0 31.01 83.40
  Q 42.24 89.28 55.17 99.60
  Q 77.28 117.26 89.90 141.61
  Q 91.52 144.74 92.59 147.84
  Q 93.59 150.51 92.02 150.63
  Q 82.61 134.59 63.77 136.25
  C 43.19 138.06 35.11 159.30 33.01 177.20
  Q 30.49 198.74 34.42 219.02
  C 37.64 235.61 46.49 249.59 65.28 249.80
  C 76.58 249.93 85.71 244.38 91.05 234.77
  C 98.32 221.70 99.81 207.41 100.00 192.73
  Q 100.56 186.96 99.57 181.79
  L 99.39 177.81
  Q 99.77 176.73 99.63 175.50
  Q 99.46 174.06 100.55 174.07
  Q 101.40 179.54 101.43 181.75
  C 101.60 193.37 103.44 205.47 101.12 217.55
  C 96.81 239.93 84.49 261.01 67.51 276.49
  Q 53.18 289.55 35.86 298.11
  Q 35.69 298.19 35.82 298.32
  L 36.11 298.62
  Q 36.36 298.88 36.69 298.75
  L 50.99 293.18
  A 0.94 0.94 0.0 0 1 52.26 294.15
  Q 51.76 299.04 51.28 303.64
  Q 49.77 318.05 44.83 330.01
  Q 44.47 330.87 43.86 331.61
  Q 43.50 332.04 43.99 332.33
  Q 44.83 332.81 46.02 333.00
  L 0.00 333.00
  L 0.00 0.00
  Z"
/>
<path fill="#431a2a" d="
  M 98.92 141.54
  Q 99.02 143.40 99.97 144.84
  Q 100.32 145.38 100.39 144.74
  Q 100.42 144.40 100.30 144.06
  Q 101.30 146.78 102.41 149.48
  C 105.90 157.93 107.68 166.57 107.77 175.70
  Q 107.81 179.42 108.00 183.12
  L 108.00 217.00
  C 106.49 242.77 89.93 274.07 67.01 286.58
  Q 62.01 289.31 56.24 291.43
  A 0.91 0.91 0.0 0 0 55.64 292.33
  Q 56.37 312.13 49.99 331.78
  Q 49.83 332.27 49.33 332.40
  L 46.98 333.00
  L 46.02 333.00
  Q 44.83 332.81 43.99 332.33
  Q 43.50 332.04 43.86 331.61
  Q 44.47 330.87 44.83 330.01
  Q 49.77 318.05 51.28 303.64
  Q 51.76 299.04 52.26 294.15
  A 0.94 0.94 0.0 0 0 50.99 293.18
  L 36.69 298.75
  Q 36.36 298.88 36.11 298.62
  L 35.82 298.32
  Q 35.69 298.19 35.86 298.11
  Q 53.18 289.55 67.51 276.49
  C 84.49 261.01 96.81 239.93 101.12 217.55
  C 103.44 205.47 101.60 193.37 101.43 181.75
  Q 101.40 179.54 100.55 174.07
  Q 99.61 168.01 97.93 162.20
  Q 97.26 159.93 96.78 157.75
  Q 96.28 155.50 95.68 153.27
  Q 94.85 150.17 92.59 147.84
  Q 91.52 144.74 89.90 141.61
  Q 77.28 117.26 55.17 99.60
  Q 42.24 89.28 31.01 83.40
  A 0.57 0.57 0.0 0 1 30.82 83.26
  Q 30.33 82.74 30.57 82.41
  Q 30.76 82.15 31.08 82.20
  Q 40.11 83.65 47.71 78.24
  C 53.27 74.29 58.79 67.50 59.31 60.49
  C 59.52 57.53 57.51 55.68 56.08 53.42
  Q 52.45 47.73 49.45 41.11
  C 43.88 28.83 38.47 15.54 34.96 1.88
  Q 34.83 1.39 35.32 1.24
  Q 35.93 1.04 36.18 1.63
  Q 48.49 30.81 66.19 55.40
  Q 66.78 56.22 66.65 57.18
  Q 64.70 71.88 54.68 81.43
  Q 49.94 85.93 45.61 86.53
  Q 42.56 86.95 45.31 88.32
  Q 81.25 106.35 98.92 141.54
  Z"
/>
<path fill="#515151" d="
  M 92.02 150.63
  Q 93.61 154.72 95.18 158.97
  Q 96.26 161.87 96.74 163.79
  Q 97.80 168.08 97.82 168.13
  Q 99.22 172.83 99.39 177.81
  L 99.57 181.79
  L 100.00 192.73
  C 99.81 207.41 98.32 221.70 91.05 234.77
  C 85.71 244.38 76.58 249.93 65.28 249.80
  C 46.49 249.59 37.64 235.61 34.42 219.02
  Q 30.49 198.74 33.01 177.20
  C 35.11 159.30 43.19 138.06 63.77 136.25
  Q 82.61 134.59 92.02 150.63
  Z
  M 65.06 179.09
  Q 64.58 179.36 63.88 179.46
  Q 63.35 179.54 63.41 180.07
  Q 63.49 180.76 64.50 181.46
  Q 62.47 181.01 61.56 179.93
  Q 58.90 176.80 56.04 173.92
  C 52.57 170.44 45.61 181.41 43.99 184.39
  Q 42.87 186.46 42.87 188.98
  C 42.87 202.36 42.98 230.95 59.62 236.08
  Q 71.28 239.68 79.15 231.78
  C 82.99 227.92 85.54 222.69 86.76 217.58
  Q 88.34 211.01 89.47 204.37
  C 90.66 197.39 90.31 190.07 90.69 183.00
  C 90.78 181.19 89.74 179.76 89.72 177.95
  C 89.69 175.41 88.36 173.16 88.01 170.67
  Q 86.75 161.63 80.57 154.72
  Q 75.70 149.29 67.56 148.61
  C 56.62 147.69 49.21 156.96 46.33 166.64
  C 45.48 169.49 44.42 172.38 43.75 175.27
  Q 43.17 177.75 45.05 176.03
  C 47.54 173.76 51.56 169.74 55.04 170.83
  Q 56.27 171.21 58.71 173.54
  Q 61.74 176.44 65.06 179.09
  Z"
/>
<path fill="#a88f9a" d="
  M 98.92 141.54
  Q 99.86 142.58 100.30 144.06
  Q 100.42 144.40 100.39 144.74
  Q 100.32 145.38 99.97 144.84
  Q 99.02 143.40 98.92 141.54
  Z"
/>
<path fill="#a88f9a" d="
  M 100.55 174.07
  Q 99.46 174.06 99.63 175.50
  Q 99.77 176.73 99.39 177.81
  Q 99.22 172.83 97.82 168.13
  Q 97.80 168.08 96.74 163.79
  Q 96.26 161.87 95.18 158.97
  Q 93.61 154.72 92.02 150.63
  Q 93.59 150.51 92.59 147.84
  Q 94.85 150.17 95.68 153.27
  Q 96.28 155.50 96.78 157.75
  Q 97.26 159.93 97.93 162.20
  Q 99.61 168.01 100.55 174.07
  Z"
/>
<path fill="#ffffff" d="
  M 64.50 181.46
  L 68.26 182.49
  A 2.03 2.02 8.9 0 1 69.74 184.51
  L 69.64 186.93
  Q 69.60 187.92 68.66 187.64
  Q 66.65 187.05 64.38 187.22
  Q 62.17 187.38 61.41 189.46
  Q 60.78 191.21 60.73 193.02
  Q 60.66 195.36 63.00 195.23
  Q 65.71 195.07 68.40 194.40
  Q 70.95 193.75 71.86 196.05
  Q 73.30 199.71 74.56 203.59
  Q 74.64 203.86 74.36 203.89
  L 74.05 203.92
  A 0.59 0.59 0.0 0 1 73.48 203.63
  Q 72.28 201.52 71.40 199.36
  C 70.23 196.46 66.65 197.91 65.08 199.40
  C 61.70 202.61 56.01 203.45 54.88 208.69
  Q 54.00 212.80 54.69 218.02
  C 55.59 224.89 59.67 229.53 66.11 231.71
  C 76.40 235.19 80.57 224.69 81.48 216.76
  C 82.21 210.43 86.58 205.07 87.83 198.79
  Q 90.17 186.99 88.30 177.48
  Q 87.34 172.59 85.15 165.24
  C 84.02 161.47 81.63 155.49 76.56 156.46
  C 73.67 157.02 72.06 159.92 69.91 161.72
  A 1.19 1.19 0.0 0 1 67.99 161.11
  C 67.32 158.52 65.92 153.07 62.29 153.88
  C 59.71 154.46 59.00 158.60 58.77 160.74
  A 1.10 1.07 -66.5 0 0 59.11 161.64
  Q 60.34 162.78 62.40 162.62
  A 1.14 1.13 84.2 0 1 63.62 163.62
  Q 64.03 166.95 64.53 170.74
  Q 64.96 173.91 68.84 173.21
  Q 70.35 172.94 70.14 174.46
  L 69.62 178.38
  A 1.55 1.55 0.0 0 1 67.75 179.69
  L 65.06 179.09
  Q 61.74 176.44 58.71 173.54
  Q 56.27 171.21 55.04 170.83
  C 51.56 169.74 47.54 173.76 45.05 176.03
  Q 43.17 177.75 43.75 175.27
  C 44.42 172.38 45.48 169.49 46.33 166.64
  C 49.21 156.96 56.62 147.69 67.56 148.61
  Q 75.70 149.29 80.57 154.72
  Q 86.75 161.63 88.01 170.67
  C 88.36 173.16 89.69 175.41 89.72 177.95
  C 89.74 179.76 90.78 181.19 90.69 183.00
  C 90.31 190.07 90.66 197.39 89.47 204.37
  Q 88.34 211.01 86.76 217.58
  C 85.54 222.69 82.99 227.92 79.15 231.78
  Q 71.28 239.68 59.62 236.08
  C 42.98 230.95 42.87 202.36 42.87 188.98
  Q 42.87 186.46 43.99 184.39
  C 45.61 181.41 52.57 170.44 56.04 173.92
  Q 58.90 176.80 61.56 179.93
  Q 62.47 181.01 64.50 181.46
  Z"
/>
<path fill="#020101" d="
  M 64.50 181.46
  Q 63.49 180.76 63.41 180.07
  Q 63.35 179.54 63.88 179.46
  Q 64.58 179.36 65.06 179.09
  L 67.75 179.69
  A 1.55 1.55 0.0 0 0 69.62 178.38
  L 70.14 174.46
  Q 70.35 172.94 68.84 173.21
  Q 64.96 173.91 64.53 170.74
  Q 64.03 166.95 63.62 163.62
  A 1.14 1.13 84.2 0 0 62.40 162.62
  Q 60.34 162.78 59.11 161.64
  A 1.10 1.07 -66.5 0 1 58.77 160.74
  C 59.00 158.60 59.71 154.46 62.29 153.88
  C 65.92 153.07 67.32 158.52 67.99 161.11
  A 1.19 1.19 0.0 0 0 69.91 161.72
  C 72.06 159.92 73.67 157.02 76.56 156.46
  C 81.63 155.49 84.02 161.47 85.15 165.24
  Q 87.34 172.59 88.30 177.48
  Q 90.17 186.99 87.83 198.79
  C 86.58 205.07 82.21 210.43 81.48 216.76
  C 80.57 224.69 76.40 235.19 66.11 231.71
  C 59.67 229.53 55.59 224.89 54.69 218.02
  Q 54.00 212.80 54.88 208.69
  C 56.01 203.45 61.70 202.61 65.08 199.40
  C 66.65 197.91 70.23 196.46 71.40 199.36
  Q 72.28 201.52 73.48 203.63
  A 0.59 0.59 0.0 0 0 74.05 203.92
  L 74.36 203.89
  Q 74.64 203.86 74.56 203.59
  Q 73.30 199.71 71.86 196.05
  Q 70.95 193.75 68.40 194.40
  Q 65.71 195.07 63.00 195.23
  Q 60.66 195.36 60.73 193.02
  Q 60.78 191.21 61.41 189.46
  Q 62.17 187.38 64.38 187.22
  Q 66.65 187.05 68.66 187.64
  Q 69.60 187.92 69.64 186.93
  L 69.74 184.51
  A 2.03 2.02 8.9 0 0 68.26 182.49
  L 64.50 181.46
  Z"
/>
<path fill="#a88f9a" d="
  M 99.57 181.79
  Q 100.56 186.96 100.00 192.73
  L 99.57 181.79
  Z"
/>
<path fill="#ffffff" d="
  M 108.00 217.00
  L 108.00 333.00
  L 46.98 333.00
  L 49.33 332.40
  Q 49.83 332.27 49.99 331.78
  Q 56.37 312.13 55.64 292.33
  A 0.91 0.91 0.0 0 1 56.24 291.43
  Q 62.01 289.31 67.01 286.58
  C 89.93 274.07 106.49 242.77 108.00 217.00
  Z"
/>
</svg>
